<svg width="64" height="19" viewBox="0 0 64 19" fill="none" xmlns="http://www.w3.org/2000/svg">
<path d="M0.570312 0.929688H3.61719V15.3203H11.1172V17.8984H0.570312V0.929688ZM27.9916 9.41406C27.9916 11.2031 27.6557 12.7539 26.9838 14.0664C26.3119 15.3789 25.3862 16.3867 24.2065 17.0898C23.0346 17.7852 21.7026 18.1328 20.2104 18.1328C18.7182 18.1328 17.3822 17.7852 16.2026 17.0898C15.0307 16.3867 14.1088 15.3789 13.4369 14.0664C12.7651 12.7461 12.4291 11.1953 12.4291 9.41406C12.4291 7.625 12.7651 6.07422 13.4369 4.76172C14.1088 3.44922 15.0307 2.44531 16.2026 1.75C17.3822 1.04688 18.7182 0.695312 20.2104 0.695312C21.7026 0.695312 23.0346 1.04688 24.2065 1.75C25.3862 2.44531 26.3119 3.44922 26.9838 4.76172C27.6557 6.07422 27.9916 7.625 27.9916 9.41406ZM24.9213 9.41406C24.9213 8.14844 24.7221 7.07031 24.3237 6.17969C23.933 5.28125 23.3822 4.60156 22.6713 4.14062C21.9604 3.67188 21.1401 3.4375 20.2104 3.4375C19.2807 3.4375 18.4604 3.67188 17.7494 4.14062C17.0385 4.60156 16.4838 5.28125 16.0854 6.17969C15.6947 7.07031 15.4994 8.14844 15.4994 9.41406C15.4994 10.6797 15.6947 11.7617 16.0854 12.6602C16.4838 13.5508 17.0385 14.2305 17.7494 14.6992C18.4604 15.1602 19.2807 15.3906 20.2104 15.3906C21.1401 15.3906 21.9604 15.1602 22.6713 14.6992C23.3822 14.2305 23.933 13.5508 24.3237 12.6602C24.7221 11.7617 24.9213 10.6797 24.9213 9.41406ZM42.0536 6.34375C41.7801 5.42969 41.2957 4.71875 40.6004 4.21094C39.9129 3.69531 39.0614 3.4375 38.0457 3.4375C37.1239 3.4375 36.3075 3.67188 35.5965 4.14062C34.8856 4.60156 34.3309 5.28125 33.9325 6.17969C33.534 7.07812 33.3348 8.14844 33.3348 9.39062C33.3348 10.6562 33.534 11.7422 33.9325 12.6484C34.3309 13.5469 34.8895 14.2305 35.6082 14.6992C36.327 15.1602 37.1629 15.3906 38.1161 15.3906C38.9598 15.3906 39.6981 15.2305 40.3309 14.9102C40.9637 14.582 41.4559 14.1211 41.8075 13.5273C42.159 12.9258 42.3426 12.2266 42.3582 11.4297H38.4207V9.01562H45.3114V11.0547C45.3114 12.4844 45.0028 13.7344 44.3856 14.8047C43.7762 15.8672 42.9286 16.6875 41.8426 17.2656C40.7567 17.8438 39.5145 18.1328 38.1161 18.1328C36.5614 18.1328 35.1903 17.7812 34.0028 17.0781C32.8153 16.3672 31.8934 15.3555 31.2372 14.043C30.5887 12.7305 30.2645 11.1875 30.2645 9.41406C30.2645 7.64062 30.5965 6.09766 31.2606 4.78516C31.9325 3.46484 32.8543 2.45312 34.0262 1.75C35.2059 1.04688 36.5379 0.695312 38.0223 0.695312C39.2567 0.695312 40.3856 0.933594 41.409 1.41016C42.4325 1.88672 43.2723 2.55469 43.9286 3.41406C44.5848 4.26562 44.9989 5.24219 45.1707 6.34375H42.0536ZM63.1936 9.41406C63.1936 11.2031 62.8577 12.7539 62.1858 14.0664C61.5139 15.3789 60.5882 16.3867 59.4085 17.0898C58.2366 17.7852 56.9046 18.1328 55.4124 18.1328C53.9202 18.1328 52.5843 17.7852 51.4046 17.0898C50.2327 16.3867 49.3108 15.3789 48.6389 14.0664C47.9671 12.7461 47.6311 11.1953 47.6311 9.41406C47.6311 7.625 47.9671 6.07422 48.6389 4.76172C49.3108 3.44922 50.2327 2.44531 51.4046 1.75C52.5843 1.04688 53.9202 0.695312 55.4124 0.695312C56.9046 0.695312 58.2366 1.04688 59.4085 1.75C60.5882 2.44531 61.5139 3.44922 62.1858 4.76172C62.8577 6.07422 63.1936 7.625 63.1936 9.41406ZM60.1233 9.41406C60.1233 8.14844 59.9241 7.07031 59.5257 6.17969C59.135 5.28125 58.5843 4.60156 57.8733 4.14062C57.1624 3.67188 56.3421 3.4375 55.4124 3.4375C54.4827 3.4375 53.6624 3.67188 52.9514 4.14062C52.2405 4.60156 51.6858 5.28125 51.2874 6.17969C50.8968 7.07031 50.7014 8.14844 50.7014 9.41406C50.7014 10.6797 50.8968 11.7617 51.2874 12.6602C51.6858 13.5508 52.2405 14.2305 52.9514 14.6992C53.6624 15.1602 54.4827 15.3906 55.4124 15.3906C56.3421 15.3906 57.1624 15.1602 57.8733 14.6992C58.5843 14.2305 59.135 13.5508 59.5257 12.6602C59.9241 11.7617 60.1233 10.6797 60.1233 9.41406Z" fill="#1A1A1A"/>
</svg>
